<svg xmlns="http://www.w3.org/2000/svg" width="100" height="100" viewBox="0 0 100 100">
    <!-- 背景装饰像素 -->
    <g class="pixel-decoration">
        <!-- 左上角像素组 -->
        <rect x="10" y="10" width="10" height="10" fill="#4A90E2"/>
        <rect x="20" y="10" width="10" height="10" fill="#2C7BE5"/>
        <rect x="10" y="20" width="10" height="10" fill="#2C7BE5"/>
        
        <!-- 右上角像素组 -->
        <rect x="70" y="10" width="10" height="10" fill="#4A90E2"/>
        <rect x="80" y="20" width="10" height="10" fill="#2C7BE5"/>
        
        <!-- 左下角像素组 -->
        <rect x="10" y="70" width="10" height="10" fill="#2C7BE5"/>
        <rect x="20" y="80" width="10" height="10" fill="#4A90E2"/>
        
        <!-- 右下角像素组 -->
        <rect x="70" y="80" width="10" height="10" fill="#4A90E2"/>
        <rect x="80" y="70" width="10" height="10" fill="#2C7BE5"/>
    </g>
    
    <!-- 中心白色背景 -->
    <rect x="25" y="25" width="50" height="50" fill="white"/>
    
    <!-- 像素风格的"G"字母 -->
    <g class="letter-g">
        <rect x="35" y="35" width="30" height="5" fill="#1F143E"/>
        <rect x="35" y="35" width="5" height="30" fill="#1F143E"/>
        <rect x="35" y="60" width="30" height="5" fill="#1F143E"/>
        <rect x="60" y="45" width="5" height="20" fill="#1F143E"/>
        <rect x="50" y="45" width="15" height="5" fill="#1F143E"/>
    </g>
</svg> 